<svg width="240" height="240" viewBox="0 0 240 240" fill="none" xmlns="http://www.w3.org/2000/svg">
  <!-- Heart rate monitor background -->
  <circle cx="120" cy="120" r="120" fill="#F1F5F9" />
  <circle cx="120" cy="120" r="110" fill="#EEF2FF" />
  
  <!-- Heart icon -->
  <path d="M120 155C118.083 155 116.167 154.417 114.583 153.25L85.25 127.667C75.5 119.167 75.5 104.833 85.25 96.3333C89.833 92.25 95.75 90 102.083 90C108.417 90 114.333 92.25 118.917 96.3333L120 97.3333L121.083 96.3333C125.667 92.25 131.583 90 137.917 90C144.25 90 150.167 92.25 154.75 96.3333C164.5 104.833 164.5 119.167 154.75 127.667L125.417 153.25C123.833 154.417 121.917 155 120 155Z" fill="#F87171" />
  
  <!-- Heart rate line -->
  <path d="M30 120H80L90 100L100 140L110 80L120 160L130 100L140 140L150 120L160 80L170 120H210" stroke="#EF4444" stroke-width="4" stroke-linecap="round" stroke-linejoin="round" />
</svg>